<?xml version="1.0" encoding="UTF-8" standalone="no"?>
<svg
   version="1.0"
   width="512.000000pt"
   height="512.000000pt"
   viewBox="0 0 512.000000 512.000000"
   preserveAspectRatio="xMidYMid meet"
   id="svg8230"
   sodipodi:docname="calendar.svg"
   inkscape:version="1.2.2 (732a01da63, 2022-12-09)"
   xmlns:inkscape="http://www.inkscape.org/namespaces/inkscape"
   xmlns:sodipodi="http://sodipodi.sourceforge.net/DTD/sodipodi-0.dtd"
   xmlns="http://www.w3.org/2000/svg"
   xmlns:svg="http://www.w3.org/2000/svg">
  <defs
     id="defs8234" />
  <sodipodi:namedview
     id="namedview8232"
     pagecolor="#ffffff"
     bordercolor="#000000"
     borderopacity="0.25"
     inkscape:showpageshadow="2"
     inkscape:pageopacity="0.0"
     inkscape:pagecheckerboard="0"
     inkscape:deskcolor="#d1d1d1"
     inkscape:document-units="pt"
     showgrid="false"
     inkscape:zoom="1.1777344"
     inkscape:cx="341.33333"
     inkscape:cy="342.60697"
     inkscape:window-width="2400"
     inkscape:window-height="1261"
     inkscape:window-x="2391"
     inkscape:window-y="149"
     inkscape:window-maximized="1"
     inkscape:current-layer="svg8230" />
  <g
     transform="translate(0.000000,512.000000) scale(0.100000,-0.100000)"
     fill="#000000"
     stroke="none"
     id="g8228"
     style="fill:#4b68de;fill-opacity:1">
    <path
       d="M610 4810 l0 -150 -305 0 -305 0 0 -2250 0 -2250 2560 0 2560 0 0 2250 0 2250 -455 0 -455 0 0 150 0 150 -150 0 -150 0 0 -150 0 -150 -300 0 -300 0 0 150 0 150 -150 0 -150 0 0 -150 0 -150 -600 0 -600 0 0 150 0 150 -150 0 -150 0 0 -150 0 -150 -300 0 -300 0 0 150 0 150 -150 0 -150 0 0 -150z m0 -750 l0 -300 300 0 300 0 0 150 0 150 -150 0 -150 0 0 150 0 150 300 0 300 0 0 -300 0 -300 300 0 300 0 0 150 0 150 -150 0 -150 0 0 150 0 150 600 0 600 0 0 -300 0 -300 300 0 300 0 0 150 0 150 -150 0 -150 0 0 150 0 150 300 0 300 0 0 -300 0 -300 305 0 305 0 0 150 0 150 -155 0 -155 0 0 150 0 150 305 0 305 0 0 -450 0 -450 -2260 0 -2260 0 0 450 0 450 155 0 155 0 0 -300z m4210 -2250 l0 -1350 -2260 0 -2260 0 0 1350 0 1350 2260 0 2260 0 0 -1350z"
       id="path8214"
       style="fill:#4b68de;fill-opacity:1" />
    <path
       d="M610 2410 l0 -450 450 0 450 0 0 450 0 450 -450 0 -450 0 0 -450z m600 0 l0 -150 -150 0 -150 0 0 150 0 150 150 0 150 0 0 -150z"
       id="path8216"
       style="fill:#4b68de;fill-opacity:1" />
    <path
       d="M2110 2410 l0 -450 450 0 450 0 0 450 0 450 -450 0 -450 0 0 -450z m600 0 l0 -150 -150 0 -150 0 0 150 0 150 150 0 150 0 0 -150z"
       id="path8218"
       style="fill:#4b68de;fill-opacity:1" />
    <path
       d="M3610 2410 l0 -450 450 0 450 0 0 450 0 450 -450 0 -450 0 0 -450z m600 0 l0 -150 -150 0 -150 0 0 150 0 150 150 0 150 0 0 -150z"
       id="path8220"
       style="fill:#4b68de;fill-opacity:1" />
    <path
       d="M610 1210 l0 -450 450 0 450 0 0 450 0 450 -450 0 -450 0 0 -450z m600 0 l0 -150 -150 0 -150 0 0 150 0 150 150 0 150 0 0 -150z"
       id="path8222"
       style="fill:#4b68de;fill-opacity:1" />
    <path
       d="M2110 1210 l0 -450 450 0 450 0 0 450 0 450 -450 0 -450 0 0 -450z m600 0 l0 -150 -150 0 -150 0 0 150 0 150 150 0 150 0 0 -150z"
       id="path8224"
       style="fill:#4b68de;fill-opacity:1" />
    <path
       d="M3610 1210 l0 -450 450 0 450 0 0 450 0 450 -450 0 -450 0 0 -450z m600 0 l0 -150 -150 0 -150 0 0 150 0 150 150 0 150 0 0 -150z"
       id="path8226"
       style="fill:#4b68de;fill-opacity:1" />
  </g>
</svg>
