<?xml version="1.0" encoding="UTF-8" standalone="no"?>
<svg
   version="1.0"
   width="512.000000pt"
   height="512.000000pt"
   viewBox="0 0 512.000000 512.000000"
   preserveAspectRatio="xMidYMid meet"
   id="svg40"
   sodipodi:docname="grafico-de-linha.svg"
   inkscape:version="1.2.2 (732a01da63, 2022-12-09)"
   xmlns:inkscape="http://www.inkscape.org/namespaces/inkscape"
   xmlns:sodipodi="http://sodipodi.sourceforge.net/DTD/sodipodi-0.dtd"
   xmlns="http://www.w3.org/2000/svg"
   xmlns:svg="http://www.w3.org/2000/svg">
  <defs
     id="defs44" />
  <sodipodi:namedview
     id="namedview42"
     pagecolor="#ffffff"
     bordercolor="#000000"
     borderopacity="0.25"
     inkscape:showpageshadow="2"
     inkscape:pageopacity="0.0"
     inkscape:pagecheckerboard="0"
     inkscape:deskcolor="#d1d1d1"
     inkscape:document-units="pt"
     showgrid="false"
     inkscape:zoom="3.3311358"
     inkscape:cx="138.99163"
     inkscape:cy="368.19273"
     inkscape:window-width="2400"
     inkscape:window-height="1261"
     inkscape:window-x="2391"
     inkscape:window-y="149"
     inkscape:window-maximized="1"
     inkscape:current-layer="g38" />
  <g
     transform="translate(0.000000,512.000000) scale(0.100000,-0.100000)"
     fill="#000000"
     stroke="none"
     id="g38">
    <path
       d="m 27.251484,4207.9152 -24.9999995,-24 v -1344 c 0,-1299 1,-1346 18.9999995,-1368 26,-32 85.999996,-32 112.000006,0 16,20 19,41 19,142 v 119 h 101 c 55,0 109,5 120,11 46,24 42,105 -7,128 -14,6 -67,11 -119,11 h -95 v 375 375 h 101 c 55,0 109,5 120,11 46,24 42,105 -7,128 -14,6 -67,11 -119,11 h -95 v 375 375 h 101 c 55,0 109,5 120,11 46,24 42,105 -7,128 -14,6 -67,11 -119,11 h -95 v 250 251 l -25,24 c -13.00001,14 -36.000006,25 -50.000006,25 -14,0 -37,-11 -50,-25 z"
       id="path24"
       style="fill:#4b68de;fill-opacity:1" />
    <path
       d="m 4977,3838 c -18,-24 -227,-317 -462,-653 -236,-335 -436,-620 -445,-631 -16,-22 -17,-22 -219,111 -112,73 -219,136 -237,140 -67,12 -102,-15 -429,-344 -170,-171 -313,-311 -316,-311 -3,0 -126,131 -273,290 -147,160 -280,297 -296,305 -60,31 -147,9 -184,-47 -8,-13 -72,-156 -141,-318 -69,-162 -127,-296 -128,-297 -2,-1 -79,52 -172,118 -94,65 -184,122 -202,125 -33,6 -86,-7 -114,-29 -9,-7 -74,-93 -143,-191 -134,-189 -145,-217 -106,-256 28,-28 81,-26 107,3 11,12 66,87 122,167 57,80 109,144 116,144 17,-2 324,-217 325,-228 0,-4 -113,-270 -250,-591 -269,-628 -264,-610 -208,-649 31,-22 52,-20 82,7 16,14 104,207 261,577 131,305 240,558 244,561 3,4 94,-56 201,-132 107,-77 212,-148 232,-159 42,-22 83,-25 125,-9 15,6 112,94 215,197 l 188,186 27,-31 c 143,-165 411,-444 437,-455 44,-18 103,-14 134,9 15,11 116,122 224,248 108,125 205,236 215,247 14,14 153,45 591,132 419,83 578,118 592,131 45,40 12,125 -48,125 -40,0 -1162,-226 -1194,-240 -14,-7 -122,-124 -239,-261 -117,-137 -215,-249 -218,-248 -10,1 -405,435 -409,449 -4,12 595,620 611,620 4,0 100,-61 214,-135 182,-120 210,-135 248,-135 27,0 54,8 75,23 43,28 990,1371 990,1403 0,37 -37,74 -75,74 -28,0 -40,-8 -68,-42 z m -2471,-1522 257,-278 -179,-178 -179,-178 -215,154 c -123,87 -214,158 -212,166 11,41 256,598 263,596 4,-2 123,-128 265,-282 z"
       id="path34"
       style="fill:#4b68de;fill-opacity:1" />
    <path
       d="M 43,2120 C 31,2115 16,2102 10,2091 3,2076 0,1808 2,1178 L 5,285 33,225 C 70,146 147,69 224,33 L 285,5 2678,2 5071,0 l 24,24 c 32,32 32,70 0,101 l -24,25 h -314 -315 l -4,105 c -4,119 -19,148 -78,148 -59,0 -74,-29 -78,-148 l -4,-105 h -368 -368 l -4,105 c -4,119 -19,148 -78,148 -59,0 -74,-29 -78,-148 l -4,-105 h -368 -368 l -4,105 c -4,119 -19,148 -78,148 -59,0 -74,-29 -78,-148 l -4,-105 h -368 -368 l -4,105 c -4,119 -19,148 -78,148 -59,0 -74,-29 -78,-148 l -4,-105 H 1210 842 l -4,105 c -4,119 -19,148 -78,148 -59,0 -74,-29 -78,-148 L 678,150 H 511 c -91,0 -183,5 -204,11 -53,14 -132,93 -146,144 -6,24 -11,137 -11,278 v 237 h 101 c 55,0 109,5 120,11 46,24 42,105 -7,128 -14,6 -67,11 -119,11 h -95 v 375 375 h 101 c 55,0 109,5 120,11 46,24 42,105 -7,128 -14,6 -67,11 -119,11 h -95 v 104 c 0,84 -3,108 -17,124 -21,25 -60,35 -90,22 z"
       id="path36"
       style="fill:#4b68de;fill-opacity:1" />
  </g>
</svg>
